<?xml version="1.0" standalone="no"?>
<!DOCTYPE svg PUBLIC "-//W3C//DTD SVG 20010904//EN"
 "http://www.w3.org/TR/2001/REC-SVG-20010904/DTD/svg10.dtd">
<svg version="1.0" xmlns="http://www.w3.org/2000/svg"
 width="864.000000pt" height="864.000000pt" viewBox="0 0 864.000000 864.000000"
 preserveAspectRatio="xMidYMid meet">
<metadata>
Created by potrace 1.16, written by Peter Selinger 2001-2019
</metadata>
<g transform="translate(0.000000,864.000000) scale(0.100000,-0.100000)"
fill="#000000" stroke="none">
<path d="M0 4320 l0 -4320 4320 0 4320 0 0 4320 0 4320 -4320 0 -4320 0 0
-4320z m3595 3681 c-4 -17 -11 -31 -16 -31 -5 0 -9 -5 -9 -12 0 -6 -10 -32
-21 -56 -12 -24 -22 -63 -22 -85 0 -23 -2 -36 -5 -28 -7 22 -52 -108 -53 -154
0 -32 -2 -36 -9 -20 -8 19 -9 19 -9 -2 -1 -12 -6 -25 -12 -29 -8 -4 -7 -9 2
-15 10 -6 11 -9 2 -9 -7 0 -13 -12 -13 -26 0 -14 -4 -23 -9 -20 -14 9 -44 -85
-44 -137 1 -48 1 -48 -13 -22 -13 25 -10 37 35 158 63 170 151 437 151 458 0
18 40 73 47 65 3 -2 2 -18 -2 -35z m-156 -551 c1 -13 0 -13 -9 0 -5 8 -9 24
-9 35 l0 20 9 -20 c5 -11 9 -27 9 -35z m-92 -120 c-1 -16 -6 -30 -10 -30 -5 0
-5 -10 -2 -21 4 -13 3 -19 -2 -16 -6 4 -18 -22 -28 -56 -10 -34 -26 -87 -36
-117 -26 -79 -64 -235 -94 -384 -23 -116 -25 -148 -22 -300 3 -124 9 -188 22
-231 10 -33 18 -67 19 -75 1 -8 10 -28 18 -45 16 -30 16 -31 -49 -155 -36 -69
-78 -144 -93 -167 -16 -22 -31 -51 -35 -64 -7 -22 -8 -21 -19 11 -7 24 -21 40
-44 50 -36 16 -35 14 -6 118 9 29 19 50 24 47 4 -3 6 3 4 12 -3 10 7 57 21
106 14 48 25 94 25 102 0 8 4 15 8 15 5 0 9 12 10 28 0 15 16 101 36 192 34
166 54 326 59 475 2 66 5 80 19 83 15 3 16 -1 7 -30 -6 -18 -12 -55 -14 -83
l-4 -50 15 60 c8 33 26 96 39 140 13 44 36 123 50 175 27 97 75 240 81 240 2
0 2 -13 1 -30z m40 -32 c-3 -8 -6 -5 -6 6 -1 11 2 17 5 13 3 -3 4 -12 1 -19z
m-319 -615 c2 -43 -9 -168 -23 -278 -13 -110 -25 -204 -25 -208 0 -5 -4 -6 -9
-3 -5 3 -11 -1 -15 -9 -3 -8 -1 -15 4 -15 6 0 10 -9 10 -20 0 -11 -5 -20 -11
-20 -7 0 -8 -11 -4 -31 5 -20 3 -29 -3 -25 -5 3 -10 -16 -10 -48 0 -30 -7 -68
-16 -84 -9 -17 -16 -44 -16 -59 0 -15 -5 -35 -11 -43 -8 -12 -9 -10 -5 10 3
14 7 50 10 80 4 40 0 30 -15 -40 -22 -106 -19 -156 11 -165 30 -10 42 -41 47
-121 5 -79 -30 -276 -53 -299 -7 -7 -11 -15 -8 -18 8 -7 -56 -143 -101 -213
-151 -238 -277 -189 -232 91 8 50 14 91 13 92 -1 1 -22 -3 -46 -9 -25 -5 -57
-10 -73 -10 -15 1 -25 -4 -22 -9 4 -5 -5 -9 -18 -9 -14 0 -28 -7 -31 -16 -3
-8 -10 -13 -15 -10 -15 10 -40 -5 -34 -20 4 -10 0 -12 -13 -7 -12 4 -15 3 -10
-5 12 -20 -21 -55 -55 -57 -17 -2 -34 -7 -38 -13 -3 -5 -16 -12 -28 -16 -13
-4 -23 -11 -23 -15 0 -5 -33 -42 -73 -82 -40 -41 -94 -99 -121 -129 l-47 -55
6 35 c4 19 13 49 21 65 7 17 29 76 48 133 19 56 46 128 60 160 14 31 41 95 61
142 43 99 111 246 175 374 44 88 46 91 82 94 20 2 51 -4 67 -13 17 -8 31 -11
31 -6 0 13 -57 34 -91 34 -16 0 -29 2 -29 3 0 2 10 24 22 49 20 40 26 45 56
45 18 0 31 -4 28 -9 -3 -5 5 -12 19 -15 14 -4 25 -11 25 -16 0 -6 5 -10 11
-10 18 0 72 -49 99 -90 14 -21 40 -59 59 -85 18 -26 37 -59 41 -73 l8 -27 1
26 c2 52 -29 199 -60 283 -37 102 -82 156 -152 181 -27 9 -51 23 -53 30 -7 16
25 67 36 60 5 -3 12 0 16 6 4 8 3 9 -4 5 -15 -9 -16 6 -1 21 13 13 70 -22 112
-70 16 -18 24 -23 18 -12 -16 30 -44 58 -76 77 -30 17 -42 45 -17 40 6 -1 11
1 10 5 -4 16 14 53 23 48 5 -3 6 0 3 8 -8 21 165 247 190 247 5 0 34 24 65 53
93 86 161 142 171 140 6 -2 9 0 9 5 -2 14 1 22 9 22 4 0 9 -35 10 -77z m331
-33 c0 -8 -9 8 -19 35 -11 28 -20 52 -19 55 2 11 38 -76 38 -90z m8 -42 c-3
-8 -6 -5 -6 6 -1 11 2 17 5 13 3 -3 4 -12 1 -19z m36 -118 c4 -19 -2 -8 -13
25 -11 33 -19 65 -19 70 1 16 26 -57 32 -95z m677 76 c0 -5 -97 -56 -107 -56
-10 0 89 59 100 59 4 1 7 -1 7 -3z m280 -16 c19 -11 32 -19 29 -20 -11 0 -79
30 -79 35 0 9 14 5 50 -15z m105 -80 c10 -11 16 -20 13 -20 -3 0 -13 9 -23 20
-10 11 -16 20 -13 20 3 0 13 -9 23 -20z m325 -90 c-6 -51 -15 -100 -20 -109
-8 -14 -9 -14 -10 -1 0 9 -14 21 -31 27 l-31 12 27 48 c15 26 37 65 49 85 11
20 22 35 24 34 1 -2 -2 -45 -8 -96z m-1351 -4 c-1 -15 -28 46 -28 64 0 8 6 0
14 -19 8 -18 15 -38 14 -45z m780 -54 c11 -21 27 -44 35 -51 9 -8 16 -21 15
-30 0 -11 -3 -10 -11 7 -6 12 -15 22 -20 22 -5 0 -17 19 -27 43 l-19 42 -17
-39 c-18 -43 -31 -44 -15 0 9 24 26 43 37 44 2 0 11 -17 22 -38z m-762 -14
c-3 -8 -6 -5 -6 6 -1 11 2 17 5 13 3 -3 4 -12 1 -19z m856 -118 c3 -11 2 -18
-3 -15 -4 3 -10 14 -13 25 -3 11 -2 18 3 15 4 -3 10 -14 13 -25z m-265 -49
c-13 -15 -25 -27 -27 -25 -4 4 39 54 47 54 2 0 -7 -13 -20 -29z m302 -6 c13
-14 21 -25 18 -25 -2 0 -15 11 -28 25 -13 14 -21 25 -18 25 2 0 15 -11 28 -25z
m-1039 -12 c13 -16 12 -17 -3 -4 -10 7 -18 15 -18 17 0 8 8 3 21 -13z m1100
-50 c13 -16 12 -17 -3 -4 -10 7 -18 15 -18 17 0 8 8 3 21 -13z m-1524 -295
c-3 -7 -5 -2 -5 12 0 14 2 19 5 13 2 -7 2 -19 0 -25z m465 20 c-7 -7 -12 -34
-12 -61 0 -44 2 -49 20 -44 10 3 21 0 23 -7 3 -8 8 -7 20 2 9 8 21 11 27 7 5
-3 13 0 16 8 6 18 42 29 49 16 3 -4 -9 -15 -27 -22 -19 -8 -42 -22 -52 -32
-15 -15 -19 -16 -27 -4 -6 10 -9 7 -9 -12 0 -14 7 -34 15 -45 15 -19 15 -18
37 6 13 14 32 37 43 51 11 14 30 28 42 31 38 10 52 -11 58 -90 4 -40 11 -87
16 -105 5 -17 9 -49 9 -70 0 -41 15 -77 36 -90 13 -7 29 -38 54 -104 7 -18 16
-30 21 -27 5 3 6 -2 3 -10 -3 -9 -2 -16 3 -16 9 0 12 -18 14 -82 1 -25 6 -38
16 -38 10 0 11 -5 5 -17 -9 -18 -7 -86 3 -130 7 -29 -11 -30 -18 -2 -6 24 -29
21 -33 -3 -1 -10 3 -15 11 -12 10 4 12 -1 8 -17 -4 -15 -3 -20 5 -15 7 4 10 2
7 -7 -7 -18 67 -102 92 -104 12 -1 21 6 22 15 6 45 0 144 -13 212 -8 41 -11
78 -7 82 4 4 15 -48 25 -115 18 -119 18 -126 0 -227 -25 -142 -24 -303 4 -452
32 -170 27 -164 -23 27 -65 247 -67 260 -50 301 17 42 22 132 8 159 -6 11 -21
29 -32 39 -19 17 -21 17 -21 3 0 -10 4 -17 8 -17 10 0 46 -60 40 -66 -3 -2
-19 12 -37 31 -18 20 -36 33 -40 30 -5 -2 -8 1 -7 8 0 6 -3 13 -8 14 -5 1 -31
46 -58 100 -27 54 -53 102 -58 106 -17 18 4 -95 45 -248 55 -203 99 -394 98
-422 0 -13 3 -21 8 -18 4 3 13 -14 19 -37 7 -24 20 -68 30 -98 28 -83 60 -211
60 -238 0 -13 5 -32 10 -42 13 -25 68 -306 85 -440 27 -206 37 -318 37 -441 0
-143 -7 -182 -36 -201 -16 -11 -28 -10 -21 2 3 6 1 10 -4 10 -6 0 -21 -16 -33
-35 -45 -68 -70 -51 -98 65 -116 484 -256 944 -385 1270 -66 168 -117 312
-111 317 2 3 12 -18 21 -46 37 -113 34 -40 -5 89 -19 65 -9 65 16 0 15 -41 22
-52 18 -30 -8 44 -44 153 -53 160 -10 7 -31 106 -31 148 0 41 38 130 69 163
11 12 18 26 15 31 -3 5 -6 72 -6 149 1 130 13 228 44 347 10 39 9 46 -11 72
-11 16 -21 36 -21 44 0 8 -4 17 -9 20 -4 3 -11 29 -15 57 -4 29 -9 66 -12 83
-4 24 -3 28 5 16 9 -12 11 -10 11 11 0 26 16 49 34 49 6 0 5 -5 -2 -12z m-62
-155 c0 -12 16 -52 35 -89 38 -72 37 -61 4 -170 -6 -20 -11 -87 -11 -148 0
-132 -10 -110 -28 60 -6 65 -14 121 -16 123 -9 9 -3 -101 12 -256 9 -89 14
-172 11 -185 -4 -13 -23 -50 -43 -83 l-36 -60 4 -102 c3 -57 4 -103 2 -103 -1
0 -8 32 -14 71 -16 92 -7 147 34 206 45 65 49 82 41 168 -7 74 -17 92 -29 58
-3 -10 -9 -24 -12 -32 -4 -8 -2 -11 3 -8 5 3 0 -13 -11 -36 l-21 -42 -3 35
c-4 32 5 96 29 223 12 65 12 140 -1 132 -16 -10 -12 69 5 101 l15 29 0 -29 c0
-16 3 -26 6 -23 7 7 7 139 -1 227 l-5 55 15 -50 c8 -27 15 -60 15 -72z m445
67 c14 -122 27 -209 36 -250 15 -64 59 -337 59 -360 0 -14 -7 -20 -22 -20 -14
0 -18 -3 -12 -8 8 -4 9 -21 5 -47 -6 -35 -8 -37 -13 -15 -3 14 -17 70 -31 125
-56 222 -79 495 -46 557 5 9 9 29 9 44 0 40 8 25 15 -26z m-488 -62 c-2 -18
-4 -4 -4 32 0 36 2 50 4 33 2 -18 2 -48 0 -65z m303 82 c0 -5 -2 -10 -4 -10
-3 0 -8 5 -11 10 -3 6 -1 10 4 10 6 0 11 -4 11 -10z m-716 -855 c-10 -8 -23
-15 -28 -15 -6 0 -1 7 10 15 10 8 23 15 28 15 6 0 1 -7 -10 -15z m-54 -25
c-19 -12 -47 -13 -54 -2 -3 5 11 9 32 10 27 1 33 -1 22 -8z m371 -72 c-11 -58
-18 -85 -57 -223 -32 -113 -40 -131 -71 -162 -36 -34 -44 -59 -16 -48 11 4 7
-5 -12 -25 -23 -24 -27 -33 -16 -39 10 -7 9 -9 -3 -14 -9 -4 -16 -13 -16 -21
0 -22 -33 -90 -48 -99 -7 -4 -19 -24 -27 -44 -18 -42 -18 -46 -6 -38 14 8 7
-41 -9 -60 -11 -13 -10 -14 5 -9 14 6 13 0 -7 -32 -25 -38 -38 -71 -37 -87 0
-5 -7 -14 -16 -21 -12 -8 -17 -29 -18 -74 -1 -34 -5 -62 -10 -62 -7 0 -24 -33
-48 -99 l-13 -34 -24 64 c-16 42 -26 90 -28 139 -3 75 -20 113 -18 42 1 -82
17 -167 41 -218 22 -49 23 -59 13 -102 -6 -26 -12 -60 -14 -77 -2 -16 -8 -42
-14 -56 -6 -15 -7 -32 -2 -39 5 -8 6 -19 2 -25 -7 -10 -12 -31 -14 -52 -1 -7
-10 -15 -20 -19 -10 -3 -18 -12 -18 -19 0 -8 6 -12 14 -9 19 7 29 -12 18 -32
-6 -11 -11 -13 -16 -5 -4 6 -2 11 4 11 6 0 8 5 5 10 -4 6 -15 3 -30 -7 -12
-10 -21 -21 -18 -25 2 -5 0 -8 -5 -8 -5 0 -17 -17 -25 -37 -9 -21 -15 -29 -12
-18 7 36 14 101 9 80 -8 -25 -23 -45 -36 -45 -6 0 -7 8 -4 18 5 14 4 14 -9 -2
-18 -24 1 -42 24 -23 11 10 13 9 9 -3 -3 -8 -15 -15 -27 -15 -12 0 -25 -6 -30
-13 -6 -10 -10 -5 -14 15 l-6 29 -78 -2 c-95 -2 -212 -14 -217 -23 -2 -3 54
-5 125 -3 112 3 129 2 129 -12 0 -9 -3 -16 -7 -17 -5 0 -28 -2 -53 -4 -103 -7
-167 -15 -195 -25 -22 -7 -8 -8 58 -4 107 7 187 -2 187 -22 0 -9 -12 -15 -32
-16 -142 -6 -248 -18 -248 -26 0 -4 58 -6 130 -4 89 2 130 0 130 -8 0 -17 -8
-19 -197 -36 -40 -4 -73 -10 -73 -13 0 -3 39 -5 87 -4 101 1 155 -5 147 -18
-3 -5 -10 -7 -15 -3 -6 3 -18 3 -27 -1 -16 -6 -15 -8 2 -21 19 -14 19 -14 -5
-15 -20 0 -18 -3 12 -12 43 -14 109 -62 71 -52 -21 6 -22 4 -16 -22 l7 -28
-29 27 c-32 29 -73 48 -106 48 -35 0 -102 -37 -120 -67 -17 -27 -17 -22 -18
167 0 107 5 222 10 255 6 33 22 134 36 225 21 137 50 287 70 360 2 8 9 35 15
60 6 25 37 101 69 170 32 69 67 161 80 205 15 53 32 90 51 110 16 17 29 35 29
41 0 5 6 16 13 23 6 6 12 15 12 19 0 4 20 45 44 90 28 56 70 113 123 170 44
48 85 97 91 110 5 12 13 22 17 22 14 0 32 -29 25 -40 -4 -6 -1 -9 6 -8 17 4
58 -97 59 -144 0 -20 5 -40 12 -44 8 -5 9 8 4 50 -8 74 -39 152 -73 189 l-28
29 44 -22 c78 -39 219 -24 289 30 14 11 27 18 30 15 3 -2 -1 -33 -7 -67z
m2546 -74 c10 -14 29 -38 41 -55 18 -22 20 -29 9 -29 -9 0 -19 10 -22 21 -4
12 -26 42 -49 67 -27 29 -33 41 -19 33 12 -6 30 -23 40 -37z m-1907 -54 c0
-12 -28 -25 -36 -17 -9 9 6 27 22 27 8 0 14 -5 14 -10z m-553 -52 c-3 -8 -6
-5 -6 6 -1 11 2 17 5 13 3 -3 4 -12 1 -19z m22 -68 c0 -9 -4 -8 -9 5 -5 11 -9
27 -9 35 0 9 4 8 9 -5 5 -11 9 -27 9 -35z m1688 -32 c-2 -13 -4 -3 -4 22 0 25
2 35 4 23 2 -13 2 -33 0 -45z m790 40 c-3 -8 -6 -5 -6 6 -1 11 2 17 5 13 3 -3
4 -12 1 -19z m-2458 -68 c0 -10 -3 -8 -9 5 -12 27 -12 43 0 25 5 -8 9 -22 9
-30z m2522 3 c13 -16 12 -17 -3 -4 -10 7 -18 15 -18 17 0 8 8 3 21 -13z m40
-30 c13 -16 12 -17 -3 -4 -10 7 -18 15 -18 17 0 8 8 3 21 -13z m-2933 -343
c-7 -10 -14 -18 -15 -16 -6 6 9 36 18 36 5 0 4 -9 -3 -20z m979 -12 c-3 -7 -5
-2 -5 12 0 14 2 19 5 13 2 -7 2 -19 0 -25z m10 -55 c-3 -10 -5 -4 -5 12 0 17
2 24 5 18 2 -7 2 -21 0 -30z m10 -55 c-3 -7 -5 -2 -5 12 0 14 2 19 5 13 2 -7
2 -19 0 -25z m2157 -14 c3 -8 2 -12 -4 -9 -6 3 -10 10 -10 16 0 14 7 11 14 -7z
m33 -141 c-2 -16 -4 -5 -4 22 0 28 2 40 4 28 2 -13 2 -35 0 -50z m-2160 -45
c-3 -8 -6 -5 -6 6 -1 11 2 17 5 13 3 -3 4 -12 1 -19z m-911 -220 c9 -18 30
-48 47 -65 17 -18 27 -33 23 -33 -4 0 5 -15 20 -34 16 -18 37 -44 48 -57 10
-13 28 -35 40 -48 11 -14 -6 -2 -39 26 -78 66 -142 100 -164 86 -14 -9 -16 -5
-15 26 1 34 3 36 30 33 16 -2 36 -10 45 -18 24 -21 35 -17 14 6 -10 11 -33 25
-51 32 -34 12 -41 28 -28 62 8 22 11 21 30 -16z m193 -198 c6 -18 6 -30 0 -30
-5 0 -9 8 -9 17 0 9 -3 13 -7 10 -3 -4 -13 3 -22 16 -9 12 -13 22 -11 22 3 1
-11 16 -30 33 l-35 33 52 -36 c31 -21 55 -47 62 -65z m-148 37 c51 -35 115
-97 100 -97 -7 0 -9 -5 -6 -10 4 -6 1 -9 -7 -8 -7 2 -12 -4 -10 -12 3 -11 -2
-10 -20 5 -58 49 -128 121 -128 132 0 20 34 15 71 -10z m-11 -80 c46 -42 118
-100 161 -129 44 -30 75 -56 71 -62 -4 -6 -5 -19 -3 -30 1 -10 -1 -16 -7 -13
-5 4 -9 0 -9 -7 0 -8 6 -12 14 -9 19 7 16 -5 -8 -30 -12 -13 -18 -30 -15 -42
5 -18 4 -19 -8 -3 -7 10 -16 14 -20 10 -4 -4 -6 -2 -4 3 6 18 -42 56 -62 50
-15 -5 -18 -3 -14 9 3 9 11 13 17 9 5 -3 7 -1 4 5 -4 5 -15 8 -26 5 -16 -4
-30 15 -27 37 1 5 -89 88 -134 124 -14 11 7 -13 45 -54 39 -41 61 -67 49 -57
-11 9 -24 15 -27 12 -4 -3 -5 -2 -2 2 8 11 -16 32 -31 26 -8 -3 -14 1 -14 7 0
7 -11 28 -25 45 -13 18 -22 35 -18 38 3 3 -8 23 -25 43 -31 37 -32 59 -3 80 8
7 20 11 27 10 6 -1 49 -36 94 -79z m233 15 c-13 -2 -23 -8 -23 -13 0 -6 -4 -7
-10 -4 -26 16 8 38 40 26 11 -4 8 -7 -7 -9z m117 -62 c-22 -31 -58 -56 -67
-46 -3 3 6 11 21 17 14 7 33 23 41 36 9 12 18 23 21 23 3 0 -4 -14 -16 -30z
m-229 -27 c13 -16 12 -17 -3 -4 -17 13 -22 21 -14 21 2 0 10 -8 17 -17z m2976
-39 c-3 -3 -12 -4 -19 -1 -8 3 -5 6 6 6 11 1 17 -2 13 -5z m-3124 -77 c-3 -5
-9 -3 -14 4 -4 7 -5 17 -2 22 3 5 9 3 14 -4 4 -7 5 -17 2 -22z m-563 -11 c0
-8 3 -21 6 -30 4 -11 1 -16 -12 -15 -11 0 -14 3 -7 5 8 4 9 13 3 30 -6 15 -6
24 0 24 6 0 10 -6 10 -14z m854 6 c2 -4 -5 -9 -17 -9 -17 -2 -19 0 -7 7 18 12
18 12 24 2z m-754 -56 c0 -3 -4 -8 -10 -11 -5 -3 -10 -1 -10 4 0 6 5 11 10 11
6 0 10 -2 10 -4z m570 -16 c0 -5 -5 -10 -11 -10 -5 0 -7 5 -4 10 3 6 8 10 11
10 2 0 4 -4 4 -10z m15 -72 c-8 -24 -16 -52 -18 -63 -3 -14 -5 -12 -6 8 -1 27
23 97 33 97 3 0 -1 -19 -9 -42z m-641 -37 c-6 -6 -11 1 -18 29 l-7 25 15 -25
c8 -14 12 -27 10 -29z m32 30 c-4 -5 -2 -11 4 -13 20 -7 -15 -51 -42 -52 -14
-1 -24 2 -22 6 3 4 17 8 31 8 21 0 24 3 19 24 -3 12 -3 26 1 30 9 9 15 7 9 -3z
m54 -21 c0 -5 -5 -10 -11 -10 -5 0 -7 5 -4 10 3 6 8 10 11 10 2 0 4 -4 4 -10z
m731 -37 c13 -16 12 -17 -3 -4 -17 13 -22 21 -14 21 2 0 10 -8 17 -17z m-941
-43 c0 -5 -5 -10 -11 -10 -5 0 -7 5 -4 10 3 6 8 10 11 10 2 0 4 -4 4 -10z
m913 -34 c-10 -13 -20 -22 -22 -20 -4 4 29 44 36 44 2 0 -4 -11 -14 -24z m82
4 c3 -6 -1 -7 -9 -4 -18 7 -21 14 -7 14 6 0 13 -4 16 -10z m-1050 -51 c5 -5
-5 -4 -23 2 -17 6 -32 13 -32 16 0 7 43 -8 55 -18z m-48 -3 c3 -3 -3 -6 -15
-6 -15 0 -20 -5 -16 -15 4 -8 0 -23 -7 -32 -12 -15 -12 -16 4 -10 22 8 75 -42
56 -54 -6 -4 -9 -12 -5 -18 9 -14 -22 -61 -41 -61 -11 0 -13 -7 -9 -24 3 -12
8 -39 11 -59 3 -20 17 -64 31 -98 26 -68 29 -89 14 -89 -5 0 -10 8 -10 18 0
10 -7 41 -15 69 -11 36 -21 52 -36 56 -16 4 -20 11 -15 24 6 14 4 15 -5 6 -6
-6 -18 -9 -25 -6 -8 3 -14 0 -14 -6 0 -6 6 -11 14 -11 8 0 18 -5 22 -12 5 -7
3 -8 -6 -3 -10 6 -11 2 -6 -19 4 -15 3 -25 -1 -23 -4 3 -8 -6 -8 -19 0 -17 6
-24 20 -24 19 -1 19 -2 -4 -20 -13 -11 -18 -20 -12 -20 6 0 11 -4 11 -10 0 -5
-7 -7 -15 -4 -13 5 -13 3 0 -22 15 -29 12 -44 -8 -44 -7 0 -6 4 3 10 8 5 10
10 4 10 -17 0 -25 -12 -15 -24 4 -6 11 -31 14 -56 4 -25 8 -54 11 -65 2 -11 7
-40 11 -65 7 -40 9 -42 16 -20 l7 25 1 -27 c2 -42 -17 -43 -28 -1 -5 21 -14
56 -19 78 l-10 40 -1 -41 c-1 -22 3 -44 8 -50 9 -8 22 -78 22 -116 0 -10 4
-18 10 -18 5 0 9 -10 9 -22 0 -13 7 -42 15 -65 8 -23 17 -62 19 -85 l5 -43
-14 30 c-8 17 -14 38 -15 48 0 29 -40 143 -56 163 -14 18 -15 18 -5 -3 6 -12
11 -30 10 -40 0 -16 -1 -16 -10 2 -6 13 -8 -11 -6 -74 2 -52 0 -85 -4 -75 -4
10 -8 60 -8 109 -1 50 -4 100 -7 113 -7 23 -7 23 -43 -10 l-36 -33 37 40 37
40 -5 155 c-3 85 -10 241 -16 346 -11 190 -11 192 11 223 12 17 25 30 29 30
19 -3 33 2 28 10 -6 9 71 7 81 -3z m980 -38 c-3 -8 -6 -5 -6 6 -1 11 2 17 5
13 3 -3 4 -12 1 -19z m-972 2 c-3 -5 -2 -10 4 -10 14 0 41 -29 41 -43 -1 -7
-9 -2 -19 11 -11 12 -27 22 -36 22 -14 0 -15 3 -5 15 14 17 24 20 15 5z m255
-73 c0 -14 -39 23 -52 48 -8 14 -2 12 21 -9 17 -17 31 -34 31 -39z m2360 3
c-6 -11 -13 -20 -16 -20 -2 0 0 9 6 20 6 11 13 20 16 20 2 0 0 -9 -6 -20z
m-1520 -4 c0 -2 -7 -7 -16 -10 -8 -3 -12 -2 -9 4 6 10 25 14 25 6z m-914 -36
c14 0 22 -4 19 -10 -3 -5 -17 -10 -31 -10 -16 0 -28 -8 -33 -22 -7 -18 -9 -15
-7 18 0 23 4 40 9 37 4 -2 8 2 8 9 1 7 3 5 6 -4 3 -11 14 -18 29 -18z m-131
-10 c-17 -18 -17 -20 -1 -26 15 -6 12 -12 -20 -45 -36 -37 -54 -38 -54 -4 0 6
4 4 9 -3 6 -11 14 -8 37 12 23 20 27 27 17 37 -7 7 -13 9 -13 4 -1 -21 -28
-45 -43 -39 -13 4 -6 15 31 44 53 44 63 49 37 20z m1175 -5 c0 -8 -2 -15 -4
-15 -2 0 -6 7 -10 15 -3 8 -1 15 4 15 6 0 10 -7 10 -15z m1353 -20 c-3 -9 -8
-14 -10 -11 -3 3 -2 9 2 15 9 16 15 13 8 -4z m-1325 -60 c-3 -3 -9 2 -12 12
-6 14 -5 15 5 6 7 -7 10 -15 7 -18z m389 -222 c-2 -37 -3 -9 -3 62 0 72 1 102
3 68 2 -34 2 -93 0 -130z m160 65 c-2 -24 -4 -5 -4 42 0 47 2 66 4 43 2 -24 2
-62 0 -85z m-1640 70 c-3 -8 -6 -5 -6 6 -1 11 2 17 5 13 3 -3 4 -12 1 -19z
m-207 -57 c0 -6 -4 -13 -10 -16 -5 -3 -10 1 -10 9 0 9 5 16 10 16 6 0 10 -4
10 -9z m1414 -156 c4 -118 1 -114 -22 29 -18 103 -18 106 0 89 14 -15 19 -39
22 -118z m-1324 53 c0 -7 3 -23 6 -35 4 -15 2 -23 -6 -23 -7 0 -10 7 -7 15 4
8 2 17 -3 20 -13 8 -13 35 0 35 6 0 10 -6 10 -12z m-73 -40 c-3 -8 -6 -5 -6 6
-1 11 2 17 5 13 3 -3 4 -12 1 -19z m273 -173 c14 -8 21 -14 15 -14 -5 0 -21 6
-35 14 -14 8 -20 14 -15 14 6 0 21 -6 35 -14z m-181 -42 c-24 -27 -57 -59 -74
-72 -16 -14 1 8 40 47 78 81 100 97 34 25z m85 11 c3 -9 2 -12 -5 -9 -6 4 -49
-33 -96 -81 -55 -56 -83 -80 -78 -65 4 14 30 48 59 77 28 29 59 62 69 74 20
24 43 26 51 4z m-742 -26 c-7 -7 -12 -8 -12 -2 0 6 3 14 7 17 3 4 9 5 12 2 2
-3 -1 -11 -7 -17z m428 12 c-8 -5 -19 -10 -25 -10 -5 0 -3 5 5 10 8 5 20 10
25 10 6 0 3 -5 -5 -10z m-299 -21 c-18 -11 -35 -18 -38 -15 -5 5 46 35 62 36
6 0 -5 -9 -24 -21z m61 -14 c-17 -14 -34 -25 -38 -25 -11 1 48 50 59 50 5 0
-5 -11 -21 -25z m162 -10 c-21 -19 -43 -34 -48 -35 -11 0 -11 1 38 39 52 42
59 39 10 -4z m-89 5 c-10 -11 -23 -20 -29 -20 -6 1 0 10 13 20 30 26 39 26 16
0z m465 16 c0 -3 -13 -18 -30 -34 -35 -36 -39 -32 -7 8 20 26 37 38 37 26z
m34 -133 c-55 -79 -71 -98 -54 -63 14 28 90 130 97 130 2 0 -17 -30 -43 -67z
m-207 35 c-3 -8 -6 -5 -6 6 -1 11 2 17 5 13 3 -3 4 -12 1 -19z m-1091 -127
c-9 -58 -18 -126 -19 -151 -2 -29 -4 -20 -5 25 -1 39 5 99 13 135 8 36 15 81
16 100 1 21 3 27 6 16 3 -11 -2 -67 -11 -125z m1374 99 c-6 -11 -13 -20 -16
-20 -2 0 0 9 6 20 6 11 13 20 16 20 2 0 0 -9 -6 -20z m-329 -33 c-6 -6 -7 -17
-1 -27 5 -9 5 -22 0 -30 -6 -11 -10 -7 -15 13 -5 17 -2 33 5 42 9 10 9 15 1
15 -6 0 -11 5 -11 11 0 8 5 7 15 -1 11 -9 12 -17 6 -23z m292 -32 c-3 -9 -8
-14 -10 -11 -3 3 -2 9 2 15 9 16 15 13 8 -4z m-316 -182 c-2 -21 -4 -6 -4 32
0 39 2 55 4 38 2 -18 2 -50 0 -70z m274 66 c-5 -13 -10 -19 -10 -12 -1 15 10
45 15 40 3 -2 0 -15 -5 -28z m-241 7 c0 -3 -4 -8 -10 -11 -5 -3 -10 -1 -10 4
0 6 5 11 10 11 6 0 10 -2 10 -4z m95 -112 c27 -109 28 -139 1 -42 -10 35 -22
77 -27 94 -5 17 -9 36 -9 44 0 30 13 -4 35 -96z m-1158 -61 c-3 -10 -5 -4 -5
12 0 17 2 24 5 18 2 -7 2 -21 0 -30z m1484 -31 c-8 -16 -37 -157 -43 -212 -3
-23 -8 -25 -66 -31 -35 -3 -68 -11 -75 -18 -18 -18 -29 -13 -17 8 5 11 8 26 5
33 -5 14 41 19 60 6 22 -14 68 -13 75 2 5 8 16 60 25 115 20 121 22 128 35
120 6 -4 7 -13 1 -23z m-254 -172 c-4 -16 -48 118 -46 141 0 8 12 -17 25 -56
13 -38 23 -77 21 -85z m288 9 c-8 -52 -19 -111 -25 -131 -10 -36 -13 -38 -53
-39 -23 0 -64 -2 -90 -4 -40 -2 -46 -1 -36 11 9 11 31 14 81 12 52 -1 72 2 78
12 12 19 30 100 36 165 6 56 12 80 19 73 3 -2 -2 -47 -10 -99z m1922 19 c-3
-8 -6 -5 -6 6 -1 11 2 17 5 13 3 -3 4 -12 1 -19z m-2327 -48 c0 -5 -2 -10 -4
-10 -3 0 -8 5 -11 10 -3 6 -1 10 4 10 6 0 11 -4 11 -10z m159 -140 c-1 -20
-27 64 -34 109 -3 20 4 7 15 -29 11 -36 19 -72 19 -80z m-86 101 c16 -1 26 -5
22 -11 -3 -6 1 -13 9 -16 9 -3 16 -12 16 -20 0 -15 -48 -10 -83 8 -21 11 -19
12 -40 -27 -21 -39 -22 -17 -1 34 11 27 21 38 32 36 9 -2 30 -4 45 -4z m-18
-71 c16 -7 14 -8 -12 -7 -17 1 -29 5 -26 10 5 9 12 8 38 -3z m50 -10 c3 -5 2
-10 -4 -10 -5 0 -13 5 -16 10 -3 6 -2 10 4 10 5 0 13 -4 16 -10z m21 -34 c8
-8 14 -19 14 -25 0 -17 -62 -17 -68 0 -6 14 -24 11 -45 -8 -19 -17 -19 -17
-16 2 8 38 86 59 115 31z m2151 -218 c-3 -7 -5 -2 -5 12 0 14 2 19 5 13 2 -7
2 -19 0 -25z"/>
<path d="M3131 6335 c0 -11 -12 -65 -26 -120 -24 -97 -30 -134 -20 -124 12 13
56 204 52 232 -2 18 -5 23 -6 12z"/>
<path d="M3143 6195 c-3 -9 -3 -18 -1 -21 3 -3 8 4 11 16 6 23 -1 27 -10 5z"/>
<path d="M3115 6129 c-4 -6 -3 -15 3 -21 6 -6 11 -4 15 6 7 18 -9 31 -18 15z"/>
<path d="M3166 6124 c-4 -9 -4 -19 -1 -22 2 -3 7 3 11 12 4 9 4 19 1 22 -2 3
-7 -3 -11 -12z"/>
<path d="M3100 6080 c0 -5 5 -10 11 -10 5 0 7 5 4 10 -3 6 -8 10 -11 10 -2 0
-4 -4 -4 -10z"/>
<path d="M3065 6040 c-12 -19 -55 -154 -47 -145 11 12 63 155 57 155 -2 0 -7
-5 -10 -10z"/>
<path d="M3115 5959 c-4 -6 -5 -12 -2 -15 2 -3 7 2 10 11 7 17 1 20 -8 4z"/>
<path d="M3006 5865 c-9 -26 -7 -32 5 -12 6 10 9 21 6 23 -2 3 -7 -2 -11 -11z"/>
<path d="M3006 5764 c-4 -14 -5 -28 -3 -31 3 -2 8 8 11 23 4 14 5 28 3 31 -3
2 -8 -8 -11 -23z"/>
<path d="M2971 5764 c0 -11 3 -14 6 -6 3 7 2 16 -1 19 -3 4 -6 -2 -5 -13z"/>
<path d="M3019 6698 c-7 -14 -2 -55 6 -55 7 0 12 6 12 14 0 7 -4 13 -9 13 -5
0 -6 5 -3 10 4 6 11 8 16 5 5 -4 9 -1 9 4 0 9 -27 16 -31 9z"/>
<path d="M2990 6625 c0 -56 -8 -67 -30 -40 -11 13 -10 18 5 29 17 12 17 13 1
19 -9 4 -15 3 -12 -2 6 -9 -23 -38 -33 -33 -3 1 -7 -9 -9 -24 -2 -17 0 -24 8
-19 6 4 8 16 5 26 -6 18 -5 19 14 7 12 -7 21 -16 21 -20 0 -5 6 -8 14 -8 8 0
17 -6 19 -12 3 -7 6 20 6 60 1 39 -1 72 -4 72 -3 0 -5 -25 -5 -55z"/>
<path d="M3016 6618 c3 -5 10 -6 15 -3 13 9 11 12 -6 12 -8 0 -12 -4 -9 -9z"/>
<path d="M3015 6590 c3 -5 8 -10 11 -10 2 0 4 5 4 10 0 6 -5 10 -11 10 -5 0
-7 -4 -4 -10z"/>
<path d="M2890 6560 c0 -7 -7 -18 -17 -25 -13 -9 -13 -14 -3 -20 9 -5 11 -4 6
3 -4 7 -3 12 3 12 5 0 15 -25 21 -56 16 -76 21 -64 9 21 -9 63 -19 98 -19 65z"/>
<path d="M3010 6555 c0 -8 2 -15 4 -15 2 0 6 7 10 15 3 8 1 15 -4 15 -6 0 -10
-7 -10 -15z"/>
<path d="M2930 6540 c-13 -8 -12 -10 3 -10 9 0 17 5 17 10 0 12 -1 12 -20 0z"/>
<path d="M2991 6514 c0 -11 3 -14 6 -6 3 7 2 16 -1 19 -3 4 -6 -2 -5 -13z"/>
<path d="M3011 6504 c0 -11 3 -14 6 -6 3 7 2 16 -1 19 -3 4 -6 -2 -5 -13z"/>
<path d="M2806 6487 c3 -10 9 -15 12 -12 3 3 0 11 -7 18 -10 9 -11 8 -5 -6z"/>
<path d="M2993 6435 c0 -22 2 -30 4 -17 2 12 2 30 0 40 -3 9 -5 -1 -4 -23z"/>
<path d="M2724 6398 c6 -18 17 -42 24 -53 l14 -20 -8 20 c-3 11 -9 30 -11 42
-3 12 -11 27 -18 33 -10 9 -11 4 -1 -22z"/>
<path d="M2831 6404 c0 -11 3 -14 6 -6 3 7 2 16 -1 19 -3 4 -6 -2 -5 -13z"/>
<path d="M3022 6340 c0 -14 2 -19 5 -12 2 6 2 18 0 25 -3 6 -5 1 -5 -13z"/>
<path d="M2852 6325 c0 -16 2 -22 5 -12 2 9 2 23 0 30 -3 6 -5 -1 -5 -18z"/>
<path d="M2651 6335 c0 -5 6 -19 14 -29 8 -11 15 -15 15 -10 0 6 -7 19 -15 30
-8 10 -14 15 -14 9z"/>
<path d="M2980 6307 c0 -15 4 -27 10 -27 5 0 9 9 7 20 -5 31 -17 36 -17 7z"/>
<path d="M2761 6315 c0 -5 6 -21 14 -35 8 -14 14 -20 14 -15 0 6 -6 21 -14 35
-8 14 -14 21 -14 15z"/>
<path d="M2958 6255 c-4 -43 -2 -75 4 -82 7 -9 7 -13 -1 -13 -7 0 -11 -28 -11
-82 0 -98 8 -101 11 -3 1 39 5 72 8 75 3 3 4 43 1 90 l-5 85 -7 -70z"/>
<path d="M3012 6285 c0 -16 2 -22 5 -12 2 9 2 23 0 30 -3 6 -5 -1 -5 -18z"/>
<path d="M2890 6290 c0 -5 5 -10 11 -10 5 0 7 5 4 10 -3 6 -8 10 -11 10 -2 0
-4 -4 -4 -10z"/>
<path d="M2920 6270 c0 -5 -7 -6 -17 -3 -12 5 -14 3 -8 -7 10 -17 12 -37 14
-142 0 -49 4 -88 9 -88 4 0 7 56 7 125 0 69 -1 125 -2 125 -2 0 -3 -4 -3 -10z"/>
<path d="M2982 6240 c0 -19 2 -27 5 -17 2 9 2 25 0 35 -3 9 -5 1 -5 -18z"/>
<path d="M2729 6177 c20 -41 38 -73 39 -72 6 6 -50 124 -63 135 -7 6 4 -23 24
-63z"/>
<path d="M2851 6198 c0 -7 9 -65 19 -128 12 -81 18 -102 19 -70 1 61 -20 210
-31 210 -4 0 -8 -6 -7 -12z"/>
<path d="M2814 6130 c15 -106 28 -312 23 -371 -3 -38 -2 -69 2 -69 22 0 3 421
-21 460 -6 10 -8 4 -4 -20z"/>
<path d="M2685 6082 c29 -57 35 -65 35 -51 0 9 -9 27 -21 40 -11 13 -18 18
-14 11z"/>
<path d="M2766 6068 c19 -60 25 -105 31 -245 7 -165 23 -210 23 -65 0 129 -32
332 -52 332 -5 0 -6 -10 -2 -22z"/>
<path d="M2913 5970 c0 -30 2 -43 4 -27 2 15 2 39 0 55 -2 15 -4 2 -4 -28z"/>
<path d="M2715 5993 c26 -61 53 -230 55 -340 0 -13 5 -23 11 -23 19 0 -8 244
-37 333 -9 26 -20 47 -26 47 -6 0 -7 -7 -3 -17z"/>
<path d="M2866 5837 c-5 -65 -6 -120 -3 -123 7 -7 20 173 15 211 -2 17 -8 -23
-12 -88z"/>
<path d="M2895 5855 c-3 -26 -4 -49 -2 -51 3 -3 8 16 12 41 3 26 4 49 2 51 -3
3 -8 -16 -12 -41z"/>
<path d="M2507 5851 c-4 -17 -3 -21 5 -13 5 5 8 16 6 23 -3 8 -7 3 -11 -10z"/>
<path d="M2926 5711 c-4 -7 -5 -15 -2 -18 9 -9 19 4 14 18 -4 11 -6 11 -12 0z"/>
<path d="M2370 5700 c0 -5 7 -7 15 -4 8 4 15 8 15 10 0 2 -7 4 -15 4 -8 0 -15
-4 -15 -10z"/>
<path d="M2430 5687 c14 -8 27 -12 30 -10 7 6 -23 23 -40 23 -8 0 -4 -6 10
-13z"/>
<path d="M2639 5676 c14 -14 27 -26 29 -26 10 0 -26 44 -39 48 -8 3 -3 -7 10
-22z"/>
<path d="M2823 5589 c-35 -22 -43 -39 -18 -39 19 0 29 -58 20 -118 -16 -107
-111 -292 -151 -292 -17 0 -12 -31 9 -60 6 -8 -1 -4 -16 9 -31 28 -36 18 -8
-18 81 -106 302 285 267 473 -13 66 -47 81 -103 45z"/>
<path d="M2348 5593 c7 -3 16 -2 19 1 4 3 -2 6 -13 5 -11 0 -14 -3 -6 -6z"/>
<path d="M2515 5553 c15 -24 29 -43 32 -43 8 0 -27 57 -43 71 -10 8 -5 -4 11
-28z"/>
<path d="M2631 5567 c2 -1 15 -11 29 -22 l25 -20 -19 23 c-11 12 -24 22 -29
22 -6 0 -8 -1 -6 -3z"/>
<path d="M2313 5473 c9 -2 25 -2 35 0 9 3 1 5 -18 5 -19 0 -27 -2 -17 -5z"/>
<path d="M2733 5438 c-45 -50 -80 -166 -54 -182 7 -5 11 2 12 16 2 56 48 168
69 168 6 0 10 5 10 10 0 17 -15 11 -37 -12z"/>
<path d="M2553 5393 c15 -2 37 -2 50 0 12 2 0 4 -28 4 -27 0 -38 -2 -22 -4z"/>
<path d="M3411 5224 c0 -11 3 -14 6 -6 3 7 2 16 -1 19 -3 4 -6 -2 -5 -13z"/>
<path d="M3401 5174 c0 -11 3 -14 6 -6 3 7 2 16 -1 19 -3 4 -6 -2 -5 -13z"/>
<path d="M3592 4940 c0 -14 2 -19 5 -12 2 6 2 18 0 25 -3 6 -5 1 -5 -13z"/>
<path d="M3376 4913 c-11 -11 -6 -21 13 -26 20 -5 65 -80 54 -90 -3 -3 2 -28
12 -54 9 -26 21 -86 27 -133 11 -99 11 -106 5 -185 -12 -160 -20 -222 -31
-245 -12 -26 -11 -50 3 -50 9 0 27 57 36 110 13 77 22 286 14 308 -5 13 -9 45
-9 70 0 26 -7 72 -15 102 -9 30 -17 64 -19 76 -8 50 -72 134 -90 117z"/>
<path d="M3601 4864 c0 -11 3 -14 6 -6 3 7 2 16 -1 19 -3 4 -6 -2 -5 -13z"/>
<path d="M3733 4865 c0 -8 4 -12 9 -9 5 3 6 10 3 15 -9 13 -12 11 -12 -6z"/>
<path d="M3330 4851 c0 -6 4 -13 10 -16 6 -3 7 1 4 9 -7 18 -14 21 -14 7z"/>
<path d="M3397 4815 c15 -24 28 -43 30 -41 7 7 -23 65 -38 75 -14 8 -12 1 8
-34z"/>
<path d="M3604 4804 c0 -21 3 -30 8 -22 10 16 10 45 1 51 -5 3 -8 -10 -9 -29z"/>
<path d="M3380 4781 c5 -11 15 -23 21 -27 6 -3 3 5 -6 20 -20 30 -30 35 -15 7z"/>
<path d="M3340 4782 c0 -5 7 -15 15 -22 8 -7 15 -9 15 -6 0 4 -7 14 -15 22 -8
9 -15 11 -15 6z"/>
<path d="M3410 4725 c0 -5 6 -16 14 -24 8 -9 17 -34 21 -56 l6 -40 -25 28
c-31 33 -34 24 -6 -18 11 -16 20 -39 21 -50 1 -11 5 -2 9 20 11 53 2 110 -21
131 -11 9 -19 13 -19 9z"/>
<path d="M3385 4690 c3 -5 8 -10 11 -10 2 0 4 5 4 10 0 6 -5 10 -11 10 -5 0
-7 -4 -4 -10z"/>
<path d="M3662 4670 c0 -14 2 -19 5 -12 2 6 2 18 0 25 -3 6 -5 1 -5 -13z"/>
<path d="M3384 4487 c11 -42 22 -68 24 -58 4 26 -14 92 -32 116 -9 13 -7 -5 8
-58z"/>
<path d="M3452 4520 c0 -14 4 -36 8 -50 l8 -25 0 25 c0 14 -4 36 -8 50 l-8 25
0 -25z"/>
<path d="M3411 4524 c-1 -15 30 -117 34 -112 2 2 -4 31 -14 63 -11 33 -20 55
-20 49z"/>
<path d="M3411 4385 c0 -11 6 -33 14 -50 l14 -30 -6 30 c-3 17 -10 39 -14 50
l-8 20 0 -20z"/>
<path d="M3453 4378 c1 -15 6 -23 11 -18 4 4 4 16 -2 26 -9 16 -10 14 -9 -8z"/>
<path d="M3398 4313 c5 -21 7 -23 10 -9 2 10 0 22 -6 28 -6 6 -7 0 -4 -19z"/>
<path d="M3442 4255 c0 -16 2 -22 5 -12 2 9 2 23 0 30 -3 6 -5 -1 -5 -18z"/>
<path d="M3411 4254 c0 -11 3 -14 6 -6 3 7 2 16 -1 19 -3 4 -6 -2 -5 -13z"/>
<path d="M3302 5190 c0 -14 2 -19 5 -12 2 6 2 18 0 25 -3 6 -5 1 -5 -13z"/>
<path d="M2810 4668 c0 -4 7 -23 16 -42 16 -32 16 -37 0 -76 -9 -24 -15 -44
-13 -46 9 -9 39 88 33 109 -5 22 -35 68 -36 55z"/>
<path d="M2727 4623 c-4 -3 -7 -16 -6 -27 0 -19 1 -19 10 3 10 24 8 36 -4 24z"/>
<path d="M2693 4603 c-3 -10 -8 -22 -11 -27 -3 -5 0 -6 5 -3 11 7 25 47 17 47
-3 0 -7 -8 -11 -17z"/>
<path d="M2711 4554 c0 -11 3 -14 6 -6 3 7 2 16 -1 19 -3 4 -6 -2 -5 -13z"/>
<path d="M2776 4546 c21 -15 30 -14 19 3 -3 6 -14 11 -23 11 -13 0 -13 -2 4
-14z"/>
<path d="M2670 4520 c0 -5 5 -10 11 -10 5 0 7 5 4 10 -3 6 -8 10 -11 10 -2 0
-4 -4 -4 -10z"/>
<path d="M2730 4520 c-18 -12 -2 -12 25 0 13 6 15 9 5 9 -8 0 -22 -4 -30 -9z"/>
<path d="M2629 4463 c-13 -16 -12 -17 4 -4 9 7 17 15 17 17 0 8 -8 3 -21 -13z"/>
<path d="M2786 4445 c-3 -9 -6 -22 -5 -28 0 -7 5 -1 10 12 5 13 8 26 5 28 -2
2 -6 -3 -10 -12z"/>
<path d="M2581 4426 c-17 -19 -20 -26 -9 -32 7 -4 10 -3 5 1 -4 5 3 19 15 32
12 13 19 23 16 23 -2 0 -15 -11 -27 -24z"/>
<path d="M2919 4334 c-23 -128 -123 -345 -151 -327 -7 3 -8 1 -4 -5 8 -14
-121 -146 -182 -187 -23 -15 -41 -30 -38 -32 8 -8 153 96 191 138 22 24 44 43
50 41 5 -2 7 -1 3 3 -3 4 11 34 32 67 22 33 42 69 45 80 5 15 10 17 21 7 12
-9 11 -15 -5 -38 -12 -16 -16 -32 -12 -40 5 -8 18 10 37 53 15 35 31 63 35 60
5 -2 13 6 20 18 11 21 11 22 -4 9 -15 -12 -17 -11 -15 10 2 13 9 30 16 37 16
18 15 29 -4 36 -11 4 -14 1 -13 -12 2 -9 -2 -27 -9 -39 -7 -13 -11 -23 -8 -23
3 0 -1 -12 -9 -27 -8 -15 -11 -31 -8 -37 4 -8 2 -8 -5 -1 -8 7 -8 22 -1 50 28
108 40 173 37 209 -3 34 -6 26 -19 -50z"/>
<path d="M2845 4354 c4 -38 0 -90 -9 -135 -9 -40 -14 -74 -12 -76 2 -3 12 19
21 48 20 58 22 161 5 200 -8 19 -9 11 -5 -37z"/>
<path d="M2981 4280 c-1 -3 -4 -18 -6 -34 -3 -20 -1 -26 6 -19 6 6 9 21 6 34
-2 13 -5 22 -6 19z"/>
<path d="M2700 4249 c13 -6 33 -17 42 -26 41 -37 9 -171 -64 -273 l-39 -55 50
53 c87 91 123 214 82 280 -18 27 -26 32 -58 31 -35 0 -36 -1 -13 -10z"/>
<path d="M2543 4108 c-13 -6 -23 -15 -23 -20 0 -5 9 -4 19 2 11 5 29 10 40 10
12 0 21 5 21 10 0 13 -29 12 -57 -2z"/>
<path d="M2856 4073 c-6 -14 -5 -15 5 -6 7 7 10 15 7 18 -3 3 -9 -2 -12 -12z"/>
<path d="M2845 4040 c3 -5 8 -10 11 -10 2 0 4 5 4 10 0 6 -5 10 -11 10 -5 0
-7 -4 -4 -10z"/>
<path d="M2375 3958 c-15 -32 -24 -69 -24 -93 l2 -40 7 45 c4 25 16 66 28 93
12 26 19 47 16 47 -3 0 -16 -24 -29 -52z"/>
<path d="M2817 3910 c-3 -11 -2 -22 3 -25 4 -3 10 4 13 15 3 11 2 22 -3 25 -4
3 -10 -4 -13 -15z"/>
<path d="M2750 3910 c-9 -6 -10 -10 -3 -10 6 0 15 5 18 10 8 12 4 12 -15 0z"/>
<path d="M2843 3893 c-3 -10 -8 -22 -10 -28 -3 -5 3 -1 11 9 16 20 21 36 11
36 -3 0 -8 -8 -12 -17z"/>
<path d="M2807 3830 c-3 -11 -3 -20 -1 -20 2 0 8 9 14 20 6 11 7 20 2 20 -6 0
-12 -9 -15 -20z"/>
<path d="M2602 3765 c0 -16 2 -22 5 -12 2 9 2 23 0 30 -3 6 -5 -1 -5 -18z"/>
<path d="M2616 3675 c7 -62 53 -162 88 -194 35 -33 33 -23 -9 39 -19 29 -42
77 -51 109 -23 86 -35 105 -28 46z"/>
<path d="M2667 3643 c-13 -12 -7 -40 11 -64 13 -15 21 -19 26 -11 4 7 1 12 -9
12 -11 0 -14 6 -9 25 4 16 2 25 -6 25 -6 0 -8 5 -5 10 7 11 2 13 -8 3z"/>
<path d="M2438 3522 l4 -78 -38 -2 c-22 -2 -42 -6 -46 -10 -4 -4 15 -5 42 -4
l50 4 0 78 c0 44 -4 81 -8 84 -5 3 -7 -30 -4 -72z"/>
<path d="M2730 3570 c0 -5 5 -10 11 -10 5 0 7 5 4 10 -3 6 -8 10 -11 10 -2 0
-4 -4 -4 -10z"/>
<path d="M2401 3531 c-29 -56 -26 -65 4 -12 14 24 23 46 21 48 -3 3 -14 -13
-25 -36z"/>
<path d="M2696 3445 c-3 -9 -2 -14 3 -10 5 3 11 0 13 -7 3 -8 6 -9 11 -1 4 6
1 16 -7 22 -10 9 -15 8 -20 -4z"/>
<path d="M2621 3407 c-13 -21 -12 -21 5 -5 10 10 16 20 13 22 -3 3 -11 -5 -18
-17z"/>
<path d="M2666 3395 c-9 -14 -21 -23 -26 -20 -5 3 -12 0 -16 -6 -4 -8 -3 -9 4
-5 15 9 15 1 2 -25 -18 -33 -3 -20 21 19 13 20 27 43 32 50 4 6 6 12 4 12 -3
0 -12 -11 -21 -25z"/>
<path d="M2454 3363 l4 -43 -56 -1 c-32 0 -66 -4 -77 -9 -14 -6 -5 -8 30 -5
28 2 65 4 83 4 28 1 32 4 31 29 0 15 -5 36 -10 47 -7 15 -8 9 -5 -22z"/>
<path d="M2370 3379 c-31 -6 -29 -7 19 -8 30 0 51 2 47 6 -9 10 -25 10 -66 2z"/>
<path d="M2675 3360 c3 -5 10 -10 16 -10 5 0 9 5 9 10 0 6 -7 10 -16 10 -8 0
-12 -4 -9 -10z"/>
<path d="M2466 3271 c-4 -6 -36 -11 -74 -12 -37 -1 -78 -5 -92 -10 -16 -5 7
-7 64 -3 49 2 92 7 96 9 7 4 19 -27 20 -47 0 -5 -35 -9 -77 -9 -43 -1 -91 -5
-108 -10 -23 -6 113 -6 197 0 8 1 -1 58 -12 80 -5 10 -9 10 -14 2z"/>
<path d="M2405 3230 c-3 -6 1 -7 9 -4 18 7 21 14 7 14 -6 0 -13 -4 -16 -10z"/>
<path d="M2445 3230 c3 -5 8 -10 11 -10 2 0 4 5 4 10 0 6 -5 10 -11 10 -5 0
-7 -4 -4 -10z"/>
<path d="M2640 3210 c0 -19 3 -21 12 -12 9 9 9 15 0 24 -9 9 -12 7 -12 -12z"/>
<path d="M2536 3164 c-10 -38 0 -41 12 -5 6 17 7 31 3 31 -5 0 -12 -12 -15
-26z"/>
<path d="M3173 3312 c-8 -5 -9 -13 -3 -22 6 -8 10 -13 11 -10 0 3 2 13 4 23 4
19 4 19 -12 9z"/>
<path d="M2290 2621 c0 -5 5 -13 10 -16 6 -3 10 -2 10 4 0 5 -4 13 -10 16 -5
3 -10 2 -10 -4z"/>
<path d="M2219 2523 c-17 -20 -18 -23 -3 -10 23 19 39 23 28 5 -4 -7 -3 -8 4
-4 6 4 9 13 5 21 -7 19 -5 20 -34 -12z"/>
<path d="M2205 2300 c-3 -5 -1 -10 4 -10 6 0 11 5 11 10 0 6 -2 10 -4 10 -3 0
-8 -4 -11 -10z"/>
<path d="M2211 2214 c0 -11 3 -14 6 -6 3 7 2 16 -1 19 -3 4 -6 -2 -5 -13z"/>
</g>
</svg>
